<?xml version="1.0" encoding="UTF-8"?>
<svg id="Lag_1" data-name="Lag 1" xmlns="http://www.w3.org/2000/svg" viewBox="0 0 557.58 212.29">
  <defs>
    <style>
      .cls-1 {
        fill: #29223b;
      }

      .cls-1, .cls-2 {
        stroke-width: 0px;
      }

      .cls-2 {
        fill: #cf3027;
      }
    </style>
  </defs>
  <g>
    <path class="cls-1" d="M23.36,210.86L0,126.92h14.31l16.54,62.12,16-62.12h14l-23.41,83.94h-14.09Z"/>
    <path class="cls-1" d="M57.11,210.86l30.49-83.94h59.03v14.2h-32.37v18.67h29.83v14.2h-29.83v22.73h33.57v14.14h-46.77v-19.75h-22.65l-6.69,19.75h-14.62ZM83.28,176.45h17.92v-36.82h-5.13l-12.79,36.82Z"/>
    <path class="cls-1" d="M158.93,210.86v-83.94h27.77c6.98,0,12.06.75,15.22,2.26,3.17,1.51,5.7,4.19,7.6,8.04,1.9,3.86,2.85,8.26,2.85,13.23,0,6.3-1.44,11.5-4.32,15.6-2.88,4.1-7.19,6.69-12.93,7.76,2.85,2.14,5.21,4.48,7.07,7.04,1.86,2.56,4.36,7.1,7.51,13.63l7.98,16.38h-15.78l-9.54-18.27c-3.39-6.53-5.71-10.64-6.96-12.34-1.25-1.7-2.57-2.86-3.97-3.49-1.4-.63-3.61-.94-6.64-.94h-2.67v35.04h-13.2ZM172.13,162.42h9.76c6.33,0,10.28-.34,11.86-1.03,1.58-.69,2.81-1.87,3.7-3.55.89-1.68,1.34-3.78,1.34-6.3,0-2.82-.59-5.11-1.76-6.84-1.17-1.74-2.83-2.84-4.97-3.29-1.07-.19-4.28-.29-9.63-.29h-10.3v21.3Z"/>
    <path class="cls-1" d="M292.23,210.86l-23.36-83.94h14.31l16.54,62.12,16.01-62.12h14l-23.4,83.94h-14.09Z"/>
    <path class="cls-1" d="M336.06,210.86v-83.94h13.2v83.94h-13.2Z"/>
    <path class="cls-1" d="M362.18,210.86v-83.25h13.2v69.11h32.81v14.14h-46.01Z"/>
    <path class="cls-1" d="M417.95,210.86v-83.25h13.2v69.11h32.81v14.14h-46.01Z"/>
    <path class="cls-1" d="M472.97,210.86v-83.94h13.2v83.94h-13.2Z"/>
    <path class="cls-1" d="M529.14,180v-14.14h28.44v33.44c-2.76,3.44-6.77,6.46-12.01,9.08-5.25,2.61-10.56,3.92-15.94,3.92-6.84,0-12.79-1.84-17.88-5.53-5.08-3.68-8.9-8.95-11.46-15.8-2.56-6.85-3.83-14.3-3.83-22.36,0-8.74,1.43-16.51,4.28-23.3,2.85-6.79,7.03-12,12.53-15.63,4.19-2.79,9.41-4.18,15.65-4.18,8.11,0,14.45,2.19,19.01,6.56,4.56,4.37,7.5,10.41,8.81,18.12l-13.11,3.15c-.92-4.12-2.65-7.38-5.19-9.76-2.54-2.38-5.71-3.58-9.52-3.58-5.77,0-10.35,2.35-13.75,7.04-3.4,4.7-5.1,11.66-5.1,20.9,0,9.96,1.72,17.44,5.17,22.42,3.45,4.98,7.96,7.47,13.55,7.47,2.76,0,5.54-.7,8.31-2.09,2.78-1.39,5.16-3.08,7.16-5.07v-10.65h-15.11Z"/>
  </g>
  <path class="cls-2" d="M149.22,58.72s67.15,40.37,97.08,122.3c0,0-1.76-44.17,27.76-104.53,0,0-22.68,19.25-35.12,60.26,0,0-21.3-48.85-89.72-78.03Z"/>
  <g>
    <path class="cls-2" d="M241.61,58.56l-5.34-6.83-15.89,18.78-7.66-9.84,16.21-19.15-5.31-6.86-22.97,27.14,35.25,45.24c.8-2.29,1.71-4.53,2.71-6.7.62-1.35,1.27-2.7,1.93-4.03l-14.82-18.97,15.89-18.78Z"/>
    <path class="cls-2" d="M259.43,53.12c-2.95-3.77-4.93-6.73-5.94-8.89-1.01-2.15-1.43-4.32-1.28-6.51.16-2.18.78-3.93,1.89-5.23.66-.78,1.4-1.41,2.23-1.88l-3.76-8.18c-1.6.79-2.87,1.74-3.79,2.83-2.62,3.09-3,7.67-1.17,13.77l-4.49-5.75-6,7.09,21.39,27.41c2.08-2.63,4.23-5.15,6.45-7.55l-5.53-7.11Z"/>
    <path class="cls-2" d="M261.75,11.27l-6.42,7.59,22.77,29.2c2.65-2.05,5.34-3.89,8.06-5.49l-24.41-31.3ZM252.95,0l-6.43,7.59,5.67,7.25,6.42-7.59-5.66-7.25Z"/>
  </g>
</svg>