<svg xmlns="http://www.w3.org/2000/svg" width="126.705" height="48.243" viewBox="0 0 126.705 48.243">
  <g id="vear-fri-villig-fuld-logo-v2" transform="translate(-136.3 -119.3)">
    <g id="Group_187" data-name="Group 187" transform="translate(136.3 147.819)">
      <path id="Path_102" data-name="Path 102" d="M141.608,265.295,136.3,246.22h3.252l3.759,14.116,3.636-14.116h3.181l-5.32,19.075h-3.2Z" transform="translate(-136.3 -245.897)" fill="#f9eef0"/>
      <path id="Path_103" data-name="Path 103" d="M193.4,265.295l6.929-19.075h13.414v3.227h-7.356v4.243h6.779v3.227h-6.779v5.165h7.628v3.213H203.39v-4.488h-5.147l-1.52,4.488H193.4Zm5.947-7.819h4.072v-8.367h-1.166Z" transform="translate(-180.425 -245.897)" fill="#f9eef0"/>
      <path id="Path_104" data-name="Path 104" d="M295.222,265.295V246.22h6.31a8.559,8.559,0,0,1,3.459.514,3.761,3.761,0,0,1,1.727,1.827,6.713,6.713,0,0,1,.648,3.006,6.023,6.023,0,0,1-.982,3.545,4.4,4.4,0,0,1-2.938,1.763,7.606,7.606,0,0,1,1.607,1.6,22.463,22.463,0,0,1,1.707,3.1l1.813,3.722h-3.586l-2.168-4.152a27.593,27.593,0,0,0-1.582-2.8,2.367,2.367,0,0,0-.9-.793,3.919,3.919,0,0,0-1.509-.214h-.607v7.963h-3Zm3-11.008h2.218a8.982,8.982,0,0,0,2.7-.234,1.72,1.72,0,0,0,.841-.807,3.035,3.035,0,0,0,.3-1.432,2.733,2.733,0,0,0-.4-1.554,1.739,1.739,0,0,0-1.129-.748,19.635,19.635,0,0,0-2.188-.066h-2.341Z" transform="translate(-259.107 -245.897)" fill="#f9eef0"/>
      <path id="Path_105" data-name="Path 105" d="M410.478,265.295,405.17,246.22h3.252l3.759,14.116,3.638-14.116H419l-5.317,19.075h-3.2Z" transform="translate(-344.072 -245.897)" fill="#f9eef0"/>
      <path id="Path_106" data-name="Path 106" d="M472.36,265.295V246.22h3v19.075Z" transform="translate(-395.993 -245.897)" fill="#f9eef0"/>
      <path id="Path_107" data-name="Path 107" d="M498.48,265.828V246.91h3v15.7h7.456v3.213H498.48Z" transform="translate(-416.178 -246.431)" fill="#f9eef0"/>
      <path id="Path_108" data-name="Path 108" d="M554.25,265.828V246.91h3v15.7h7.456v3.213Z" transform="translate(-459.274 -246.431)" fill="#f9eef0"/>
      <path id="Path_109" data-name="Path 109" d="M609.27,265.295V246.22h3v19.075Z" transform="translate(-501.792 -245.897)" fill="#f9eef0"/>
      <path id="Path_110" data-name="Path 110" d="M640.186,257.185v-3.213h6.463v7.6a8.864,8.864,0,0,1-6.351,2.954,6.733,6.733,0,0,1-4.063-1.257,7.55,7.55,0,0,1-2.6-3.59,14.4,14.4,0,0,1-.87-5.081,13.582,13.582,0,0,1,.973-5.295,7.682,7.682,0,0,1,2.847-3.552,6.281,6.281,0,0,1,3.556-.95,5.99,5.99,0,0,1,4.32,1.491,7.18,7.18,0,0,1,2,4.118l-2.979.716a4.2,4.2,0,0,0-1.179-2.218,3.042,3.042,0,0,0-2.163-.814,3.664,3.664,0,0,0-3.125,1.6,8.071,8.071,0,0,0-1.159,4.749,8.989,8.989,0,0,0,1.175,5.095,3.59,3.59,0,0,0,3.079,1.7,4.187,4.187,0,0,0,1.888-.475,6.238,6.238,0,0,0,1.627-1.152v-2.42h-3.434Z" transform="translate(-519.944 -244.8)" fill="#f9eef0"/>
    </g>
    <path id="Path_111" data-name="Path 111" d="M285.52,178.02a58.152,58.152,0,0,1,22.061,27.792s-.4-10.037,6.308-23.754c0,0-5.154,4.374-7.981,13.694,0,0-4.84-11.1-20.388-17.732Z" transform="translate(-115.311 -45.376)" fill="#f9eef0"/>
    <g id="Group_188" data-name="Group 188" transform="translate(181.896 119.3)">
      <path id="Path_112" data-name="Path 112" d="M346.258,159.391l-1.213-1.552-3.611,4.268-1.741-2.236,3.684-4.352-1.207-1.559-5.22,6.167,8.01,10.28c.182-.52.389-1.029.616-1.523.141-.307.289-.614.439-.916l-3.368-4.311Z" transform="translate(-336.95 -146.084)" fill="#f9eef0"/>
      <path id="Path_113" data-name="Path 113" d="M378.49,148.7a11.738,11.738,0,0,1-1.35-2.02,2.957,2.957,0,0,1-.291-1.479,2.006,2.006,0,0,1,.429-1.188,1.875,1.875,0,0,1,.507-.427l-.854-1.859a2.637,2.637,0,0,0-.861.643,3.23,3.23,0,0,0-.266,3.129l-1.02-1.307-1.363,1.611,4.861,6.229q.709-.9,1.466-1.716Z" transform="translate(-365.133 -136.633)" fill="#f9eef0"/>
      <path id="Path_114" data-name="Path 114" d="M386.281,121.861l-1.459,1.725L390,130.221a17.524,17.524,0,0,1,1.832-1.248l-5.547-7.113Zm-2-2.561-1.461,1.725,1.288,1.648,1.459-1.725Z" transform="translate(-372.396 -119.3)" fill="#f9eef0"/>
    </g>
  </g>
</svg>
